<svg width="217" height="114" viewBox="0 0 217 114" fill="none" xmlns="http://www.w3.org/2000/svg">
<path d="M17.2139 60.4427C16.3359 60.4427 15.6775 59.8748 15.2385 58.7388C14.2979 56.7659 13.8275 53.1788 13.8275 47.9775C13.8275 42.9556 13.9216 37.1863 14.1097 30.6697C14.1724 28.5773 14.2038 25.3489 14.2038 20.9846L13.9216 20.6259H3.4804C2.66517 20.6259 2.00672 20.2074 1.50504 19.3704C1.06607 18.4736 0.721164 17.248 0.470324 15.6936C0.156775 13.9 0 11.3293 0 7.98131V6.72582C0 6.12797 0.0313549 5.64969 0.0940647 5.29098V3.13872C0.0940647 2.78001 0.282194 2.48108 0.658454 2.24194C1.03471 1.94301 1.47368 1.73377 1.97536 1.6142C2.60246 1.43484 3.54311 1.34516 4.79731 1.34516H11.9462C13.514 1.34516 14.7055 1.37506 15.5207 1.43484L19.0011 1.52452H52.8644C55.3101 1.52452 56.9092 1.55441 57.6617 1.6142C57.9753 1.67398 58.4142 1.73377 58.9786 1.79355C59.543 1.85334 59.9506 1.97291 60.2015 2.15226C60.6405 2.33162 60.8913 2.57076 60.954 2.86968C61.0794 3.10882 61.1421 3.49743 61.1421 4.03549V18.8323C61.1421 19.4899 60.8599 19.9383 60.2955 20.1775C59.9193 20.297 59.4176 20.3568 58.7905 20.3568H52.6763C51.234 20.3568 50.1365 20.297 49.384 20.1775H46.5621C45.9977 20.1775 45.6841 20.297 45.6214 20.5362C45.6214 20.596 45.5901 20.6856 45.5274 20.8052C45.4647 20.865 45.4333 20.9547 45.4333 21.0742V25.4684C45.4333 26.3652 45.402 27.0527 45.3392 27.531C45.3392 29.2648 45.2138 33.0611 44.963 38.9201L44.7749 41.6104C44.6494 44.1214 44.524 45.9448 44.3986 47.0808V55.6001C44.3986 57.6328 43.9596 58.9182 43.0817 59.4563C42.2665 59.7552 41.7021 59.9345 41.3885 59.9943L39.0369 60.084C36.5912 60.084 34.8667 60.1438 33.8633 60.2634L23.9865 60.353C22.7323 60.4128 20.4748 60.4427 17.2139 60.4427Z" fill="#4022F0"/>
<path d="M80.7693 60.6221C80.1422 60.6221 79.6406 60.5623 79.2643 60.4427H75.0314L70.7985 59.4563L70.4222 58.7388C70.3595 58.7388 70.3281 58.41 70.3281 57.7524C70.3281 56.9154 70.2968 56.2279 70.2341 55.6898L70.14 51.5646C70.0773 50.6679 70.046 49.3227 70.046 47.5291L69.8578 40.624C69.8578 39.1293 69.9205 37.0667 70.046 34.4362L70.14 31.3872C70.2654 29.474 70.3281 26.3353 70.3281 21.971V20.1775C70.2027 19.9981 70.14 19.6693 70.14 19.191L70.046 18.5633C70.046 17.0686 70.14 15.5142 70.3281 13.9C70.4536 11.8673 70.5163 10.014 70.5163 8.34002L70.4222 5.82904C70.3595 5.17141 70.3281 4.39421 70.3281 3.49743C70.3281 3.43764 70.2654 3.34796 70.14 3.2284C70.0773 3.10882 70.046 2.98925 70.046 2.86968C70.046 2.27183 70.2968 1.76366 70.7985 1.34516C71.3001 0.926669 71.9272 0.627744 72.6798 0.448388C73.6831 0.149463 74.9687 0 76.5364 0H99.7704C99.8331 0 99.9272 0.0597861 100.053 0.179358C100.178 0.298927 100.303 0.388603 100.429 0.448388C100.931 0.866885 101.558 1.67398 102.31 2.86968C102.498 3.22839 102.686 3.64689 102.875 4.12517C103.125 4.54367 103.439 5.2312 103.815 6.18776C104.254 7.14432 104.85 8.60905 105.602 10.582L106.731 13.362C107.233 14.2587 107.797 15.5441 108.424 17.2181C108.613 17.6964 108.801 18.1747 108.989 18.6529C109.24 19.1312 109.459 19.6095 109.647 20.0878C109.773 20.5063 109.898 20.8351 110.023 21.0742C110.212 21.2536 110.306 21.3732 110.306 21.433C110.745 22.3895 111.215 22.8678 111.717 22.8678C112.344 22.8678 112.845 22.3895 113.222 21.433C113.284 21.3732 113.347 21.2536 113.41 21.0742C113.473 20.8351 113.629 20.4764 113.88 19.9981L115.291 17.0387L119.054 9.41615L120.653 6.18776C120.841 5.70947 120.966 5.32087 121.029 5.02195C121.155 4.66324 121.28 4.4241 121.405 4.30453C121.656 3.76646 122.252 2.83979 123.193 1.52452C123.506 1.04624 123.788 0.687528 124.039 0.448388C124.227 0.388603 124.353 0.298927 124.415 0.179358C124.478 0.0597861 124.572 0 124.698 0H153.576C153.701 0 153.858 0.448388 154.046 1.34516L154.328 10.1336C154.453 12.6445 154.516 16.5904 154.516 21.971V27.1723C154.516 29.205 154.422 31.4768 154.234 33.9878C154.046 36.4988 153.92 38.113 153.858 38.8304L153.67 40.624V43.7627C153.732 44.5997 153.764 45.8552 153.764 47.5291C153.764 49.3227 153.795 50.6679 153.858 51.5646C153.858 53.2984 153.92 54.4941 154.046 55.1517V58.7388L153.764 59.4563L149.531 60.4427H145.298C144.859 60.5623 144.326 60.6221 143.699 60.6221C142.57 60.6221 141.002 60.5623 138.995 60.4427L136.644 60.353C136.205 60.2933 135.703 60.2335 135.139 60.1737C134.574 60.1139 133.885 60.084 133.069 60.084L129.401 59.815C129.275 59.815 129.181 59.8449 129.119 59.9046H128.366C128.053 59.9046 127.864 59.5758 127.802 58.9182C127.425 57.7225 127.237 55.6898 127.237 52.8201C127.237 50.907 127.206 49.4124 127.143 48.3362L127.049 43.4936C126.987 42.4175 126.955 40.8631 126.955 38.8304C126.955 38.3521 126.736 38.113 126.297 38.113C126.046 38.113 125.795 38.4119 125.544 39.0098L124.509 41.4311L123.663 43.673C123.537 44.0317 123.412 44.3904 123.287 44.7491C123.161 45.1078 123.004 45.4367 122.816 45.7356L122.346 46.8117C121.782 48.0074 121.06 49.3526 120.183 50.8472C119.242 52.4614 118.082 53.7468 116.702 54.7033C115.95 55.1218 115.291 55.3311 114.727 55.3311H113.316C112.563 55.3311 111.936 55.2713 111.434 55.1517H107.484C104.975 51.3255 102.624 47.1405 100.429 42.5969L99.0179 39.2788C98.6417 38.5016 98.3908 38.113 98.2654 38.113C97.8264 38.113 97.6069 38.3521 97.6069 38.8304V43.0453C97.6069 47.2302 97.5442 50.3091 97.4188 52.2821C97.2934 55.3909 97.0739 57.5431 96.7604 58.7388C96.6976 59.516 96.5095 59.9046 96.196 59.9046H95.5375L95.0672 59.815C92.9351 59.9345 91.2419 60.0541 89.9877 60.1737C89.2352 60.2335 87.9183 60.3231 86.037 60.4427C84.1557 60.5623 82.3998 60.6221 80.7693 60.6221Z" fill="#4022F0"/>
<path d="M140.397 39.9265L146.674 58.3441H166.987L150.553 69.7267L156.83 88.1443L140.397 76.7616L123.964 88.1443L130.241 69.7267L113.807 58.3441H134.12L140.397 39.9265Z" fill="#4022F0"/>
</svg>
